Coordinates
version=1
nRows=43
nColumns=12
inDegrees=yes

Units are S.I. units (second, meters, Newtons, ...)
Angles are in degrees

endheader
time	SC_y	SC_z	SC_x	AC_y	AC_z	AC_x	GH_y	GH_z	GH_yy	EL_x	PS_y
       0.0              -22.13          29.14          80.76          46.47         -16.12         -5.107          156.4          26.05          -55.4          33.79          109.3
   0.02595              -22.13          29.14          80.75          46.47         -16.12         -5.107          156.3          26.05         -55.37          33.79          109.3
   0.05189              -22.14          29.13          80.74          46.47         -16.11         -5.107          156.3          26.06         -55.34          33.79          109.3
   0.07784              -22.14          29.13          80.72          46.47         -16.11         -5.107          156.2          26.07         -55.31          33.79          109.3
    0.1038              -22.14          29.13          80.71          46.47         -16.11         -5.108          156.2          26.09         -55.28          33.78          109.3
    0.1297              -22.15          29.12           80.7          46.47         -16.11         -5.108          156.1           26.1         -55.24          33.78          109.3
    0.1557              -22.15          29.12          80.68          46.47         -16.11         -5.108          156.1          26.11          -55.2          33.78          109.3
    0.1816              -22.16          29.12          80.67          46.47          -16.1         -5.108          156.0          26.12         -55.16          33.78          109.3
    0.2076              -22.17          29.11          80.65          46.47          -16.1         -5.108          155.9          26.14         -55.12          33.78          109.3
    0.2335              -22.17          29.11          80.63          46.47          -16.1         -5.109          155.9          26.15         -55.07          33.78          109.3
    0.2595              -22.18           29.1          80.61          46.47          -16.1         -5.109          155.8          26.17         -55.03          33.78          109.3
    0.2854              -22.19           29.1          80.59          46.47         -16.09         -5.109          155.7          26.19         -54.97          33.78          109.3
    0.3114              -22.19          29.09          80.57          46.47         -16.09         -5.109          155.6          26.21         -54.91          33.78          109.3
    0.3373               -22.2          29.09          80.54          46.47         -16.09          -5.11          155.5          26.23         -54.85          33.78          109.3
    0.3633              -22.21          29.08          80.52          46.47         -16.08          -5.11          155.4          26.25         -54.79          33.77          109.3
    0.3892              -22.22          29.08          80.49          46.47         -16.08          -5.11          155.3          26.27         -54.71          33.77          109.3
    0.4152              -22.23          29.07          80.46          46.47         -16.08         -5.111          155.1           26.3         -54.63          33.77          109.3
    0.4411              -22.24          29.06          80.42          46.47         -16.07         -5.111          155.0          26.33         -54.55          33.77          109.3
     0.467              -22.26          29.05          80.39          46.47         -16.07         -5.112          154.9          26.36         -54.46          33.77          109.3
     0.493              -22.27          29.04          80.35          46.47         -16.06         -5.112          154.7          26.39         -54.35          33.76          109.3
    0.5189              -22.29          29.03           80.3          46.47         -16.06         -5.113          154.5          26.43         -54.24          33.76          109.3
    0.5449               -22.3          29.02          80.25          46.47         -16.05         -5.114          154.3          26.47         -54.12          33.76          109.3
    0.5708              -22.32          29.01           80.2          46.46         -16.04         -5.114          154.1          26.52         -53.98          33.76          109.3
    0.5968              -22.34          28.99          80.14          46.46         -16.03         -5.115          153.8          26.57         -53.83          33.75          109.3
    0.6227              -22.37          28.98          80.07          46.46         -16.02         -5.116          153.6          26.63         -53.66          33.75          109.3
    0.6487              -22.39          28.96           80.0          46.46         -16.01         -5.117          153.3          26.69         -53.47          33.74          109.3
    0.6746              -22.42          28.94          79.92          46.46          -16.0         -5.118          152.9          26.76         -53.26          33.74          109.3
    0.7006              -22.46          28.91          79.82          46.46         -15.99         -5.119          152.5          26.84         -53.02          33.73          109.3
    0.7265              -22.49          28.89          79.72          46.46         -15.98         -5.121          152.1          26.93         -52.75          33.73          109.3
    0.7525              -22.53          28.86           79.6          46.46         -15.96         -5.122          151.6          27.03         -52.45          33.72          109.3
    0.7784              -22.58          28.83          79.46          46.46         -15.94         -5.124          151.1          27.14          -52.1          33.71          109.4
    0.8044              -22.64          28.79           79.3          46.46         -15.92         -5.126          150.4          27.28          -51.7           33.7          109.4
    0.8303               -22.7          28.75          79.12          46.46          -15.9         -5.129          149.7          27.43         -51.24          33.69          109.4
    0.8563              -22.78           28.7          78.91          46.46         -15.87         -5.131          148.8          27.61         -50.71          33.68          109.4
    0.8822              -22.86          28.64          78.67          46.46         -15.83         -5.135          147.8          27.82         -50.08          33.67          109.4
    0.9082              -22.96          28.57          78.38          46.46         -15.79         -5.138          146.6          28.07         -49.34          33.65          109.4
    0.9341              -23.08          28.48          78.03          46.46         -15.75         -5.143          145.2          28.36         -48.47          33.63          109.4
      0.96              -23.23          28.38          77.62          46.46         -15.69         -5.148          143.5          28.71         -47.42          33.61          109.4
     0.986              -23.41          28.26          77.12          46.46         -15.62         -5.155          141.5          29.13         -46.15          33.58          109.4
     1.012              -23.62          28.12           76.5          46.45         -15.54         -5.163          139.0          29.65         -44.59          33.54          109.5
     1.038              -23.89          27.93          75.75          46.45         -15.44         -5.173          135.9          30.29         -42.67           33.5          109.5
     1.064              -24.22          27.71          74.81          46.45         -15.31         -5.185          132.0          31.09         -40.28          33.45          109.5
      1.09              -24.63          27.42          73.62          46.45         -15.15         -5.201          127.2          32.09         -37.27          33.38          109.5
